<mxfile host="app.diagrams.net" modified="2024-04-26T15:35:14.811Z" agent="Mozilla/5.0 (Windows NT 10.0; Win64; x64) AppleWebKit/537.36 (KHTML, like Gecko) Chrome/124.0.0.0 Safari/537.36 Edg/124.0.0.0" etag="gij_2XhXUzcPIMpucW4H" version="24.2.8" type="github">
  <diagram name="Page-1" id="zhAovh8lQafjG5dW0M_-">
    <mxGraphModel dx="1050" dy="754" grid="1" gridSize="10" guides="1" tooltips="1" connect="1" arrows="1" fold="1" page="1" pageScale="1" pageWidth="850" pageHeight="1100" math="0" shadow="0">
      <root>
        <mxCell id="0" />
        <mxCell id="1" parent="0" />
        <mxCell id="Si8e9ODw12yJdeyg8Gi--2" style="edgeStyle=orthogonalEdgeStyle;rounded=0;orthogonalLoop=1;jettySize=auto;html=1;" edge="1" parent="1" source="Si8e9ODw12yJdeyg8Gi--1" target="Si8e9ODw12yJdeyg8Gi--3">
          <mxGeometry relative="1" as="geometry">
            <mxPoint x="280" y="330" as="targetPoint" />
          </mxGeometry>
        </mxCell>
        <mxCell id="Si8e9ODw12yJdeyg8Gi--1" value="test" style="whiteSpace=wrap;html=1;" vertex="1" parent="1">
          <mxGeometry x="90" y="170" width="120" height="60" as="geometry" />
        </mxCell>
        <mxCell id="Si8e9ODw12yJdeyg8Gi--3" value="done" style="ellipse;whiteSpace=wrap;html=1;" vertex="1" parent="1">
          <mxGeometry x="220" y="290" width="120" height="80" as="geometry" />
        </mxCell>
      </root>
    </mxGraphModel>
  </diagram>
</mxfile>
